# xmcd
#
# Track frame offsets:
#	150
#	12632
#	25197
#	41032
#	51830
#	61345
#	73983
#	86511
#	99448
#	111977
#	135821
#	152196
#	166973
#	183291
#	199525
#	218304
#	236210
#	257528
#	282708
#	296827
#	316249
#	336043
#
# Disc length: 4788 seconds
#
# Revision: 0
# Processed by: cddbd v1.5.2PL0 Copyright (c) Steve Scherf et al.
# Submitted via: dBpowerAMP V4.0
#
DISCID=4012b216
DTITLE=James Brown - The Very Best of James Brown
DYEAR=1900
DGENRE=
TTITLE0=Please
TTITLE1=?
TTITLE2=?
TTITLE3=?
TTITLE4=?
TTITLE5=?
TTITLE6=?
TTITLE7=?
TTITLE8=?
TTITLE9=?
TTITLE10=?
TTITLE11=?
TTITLE12=?
TTITLE13=??
TTITLE14=?
TTITLE15=?
TTITLE16=?
TTITLE17=??
TTITLE18=?
TTITLE19=?
TTITLE20=?
TTITLE21=?
EXTD=
EXTT0=
EXTT1=
EXTT2=
EXTT3=
EXTT4=
EXTT5=
EXTT6=
EXTT7=
EXTT8=
EXTT9=
EXTT10=
EXTT11=
EXTT12=
EXTT13=
EXTT14=
EXTT15=
EXTT16=
EXTT17=
EXTT18=
EXTT19=
EXTT20=
EXTT21=
PLAYORDER=
